<svg xmlns="http://www.w3.org/2000/svg" viewBox="0 0 128 128"><path d="M43 82 29 116l15 6 20-34 20 34 15-6-14-34z" fill="#17394a" stroke="#071d29" stroke-width="5"/><path d="M36 55q28-17 56 0l5 48q-33 17-66 0z" fill="#e0a32f" stroke="#112f3c" stroke-width="5"/><path d="M43 74h42v17H43z" fill="#1c4d63"/><circle cx="64" cy="45" r="24" fill="#c98d65" stroke="#102f3d" stroke-width="5"/><path d="M39 38q25-24 50 0v20q-25 14-50 0z" fill="#205f78" stroke="#0b2f42" stroke-width="5"/><path d="M45 40h38v18H45z" rx="8" fill="#72d5e4" stroke="#d5f6f6" stroke-width="4"/><circle cx="55" cy="49" r="4" fill="#102830"/><circle cx="73" cy="49" r="4" fill="#102830"/><path d="M88 66q24-2 26 21v24" fill="none" stroke="#d7b84f" stroke-width="7" stroke-linecap="round"/><rect x="17" y="63" width="18" height="42" rx="8" fill="#7d98a0" stroke="#163b49" stroke-width="5"/></svg>
