<svg xmlns="http://www.w3.org/2000/svg" viewBox="0 0 128 128">
  <defs>
    <linearGradient id="j" x1="0" y1="0" x2="0" y2="1"><stop stop-color="#567b42"/><stop offset="1" stop-color="#294b31"/></linearGradient>
    <linearGradient id="h" x1="0" y1="0" x2="0" y2="1"><stop stop-color="#d3a354"/><stop offset="1" stop-color="#8a5c27"/></linearGradient>
  </defs>
  <path d="M45 79 31 111l15 7 18-31zm38 0 14 32-15 7-18-31z" fill="#25392d" stroke="#17251d" stroke-width="5" stroke-linejoin="round"/>
  <path d="M37 65q-17 10-20 31l13 5q6-15 18-21zm54 0q17 10 20 31l-13 5q-6-15-18-21z" fill="#ad7545" stroke="#4b3222" stroke-width="5" stroke-linejoin="round"/>
  <path d="M39 59q25-15 50 0l8 43q-33 17-66 0z" fill="url(#j)" stroke="#173021" stroke-width="5" stroke-linejoin="round"/>
  <path d="m64 64-9 20 9 7 9-7z" fill="#e6d2a0" stroke="#273d2e" stroke-width="3"/>
  <path d="M42 81h15v9H42zm29 0h15v9H71z" fill="#d3a354" stroke="#283c2d" stroke-width="3"/>
  <circle cx="64" cy="48" r="22" fill="#d99c6c" stroke="#5a3824" stroke-width="5"/>
  <circle cx="56" cy="48" r="3.5" fill="#24352c"/><circle cx="72" cy="48" r="3.5" fill="#24352c"/>
  <path d="M57 58q7 5 14 0" fill="none" stroke="#70452e" stroke-width="3" stroke-linecap="round"/>
  <ellipse cx="64" cy="35" rx="43" ry="13" fill="url(#h)" stroke="#5d3b1c" stroke-width="5"/>
  <path d="M43 34q2-26 21-27 19 1 21 27z" fill="url(#h)" stroke="#5d3b1c" stroke-width="5" stroke-linejoin="round"/>
  <path d="M47 29h34" stroke="#3f653f" stroke-width="6"/><path d="m88 73 26 40" stroke="#4a321f" stroke-width="8" stroke-linecap="round"/><path d="m84 72 31 45" stroke="#c7a05c" stroke-width="3" stroke-linecap="round"/>
  <circle cx="20" cy="98" r="9" fill="#d99c6c" stroke="#4b3222" stroke-width="4"/><circle cx="108" cy="98" r="9" fill="#d99c6c" stroke="#4b3222" stroke-width="4"/>
</svg>
