<svg xmlns="http://www.w3.org/2000/svg" viewBox="0 0 128 128"><path d="M45 80 31 116l16 5 17-33 17 33 16-5-14-36z" fill="#4b4430" stroke="#282419" stroke-width="5"/><path d="M37 59q27-17 54 0l7 43q-34 18-68 0z" fill="#b68b3f" stroke="#4d3b22" stroke-width="5"/><path d="m64 66-10 20 10 8 10-8z" fill="#efe0ac"/><circle cx="64" cy="46" r="22" fill="#c98957" stroke="#593822" stroke-width="5"/><ellipse cx="64" cy="31" rx="44" ry="13" fill="#b18a48" stroke="#583b1f" stroke-width="5"/><path d="M44 31Q47 6 64 6t20 25z" fill="#c39a55" stroke="#583b1f" stroke-width="5"/><path d="M47 26h34" stroke="#6c7135" stroke-width="6"/><circle cx="56" cy="47" r="3.5" fill="#253226"/><circle cx="72" cy="47" r="3.5" fill="#253226"/><path d="M57 57q7 5 14 0" fill="none" stroke="#70452e" stroke-width="3"/><path d="m87 73 27 42" stroke="#4b3020" stroke-width="7" stroke-linecap="round"/><path d="M40 78 19 99m69-21 21 21" stroke="#c98957" stroke-width="12" stroke-linecap="round"/></svg>
